<svg width="32" height="32" viewBox="0 0 32 32" fill="none" xmlns="http://www.w3.org/2000/svg">
<path d="M12.1875 14.125C13.7383 14.125 15 12.8633 15 11.3125C15 9.76172 13.7383 8.5 12.1875 8.5C10.6367 8.5 9.375 9.76172 9.375 11.3125C9.375 12.8633 10.6367 14.125 12.1875 14.125ZM12.1875 10.375C12.7043 10.375 13.125 10.7957 13.125 11.3125C13.125 11.8293 12.7043 12.25 12.1875 12.25C11.6707 12.25 11.25 11.8293 11.25 11.3125C11.25 10.7957 11.6707 10.375 12.1875 10.375Z" fill="#2B398F"/>
<path d="M12.1875 14.125C13.7383 14.125 15 12.8633 15 11.3125C15 9.76172 13.7383 8.5 12.1875 8.5C10.6367 8.5 9.375 9.76172 9.375 11.3125C9.375 12.8633 10.6367 14.125 12.1875 14.125ZM12.1875 10.375C12.7043 10.375 13.125 10.7957 13.125 11.3125C13.125 11.8293 12.7043 12.25 12.1875 12.25C11.6707 12.25 11.25 11.8293 11.25 11.3125C11.25 10.7957 11.6707 10.375 12.1875 10.375Z" fill="#3749BB"/>
<path d="M29.8125 14.75H20.5723C21.0085 13.6895 21.25 12.5288 21.25 11.3125C21.25 6.31543 17.1846 2.25 12.1875 2.25C7.19043 2.25 3.125 6.31543 3.125 11.3125C3.125 12.5288 3.36646 13.6895 3.80273 14.75H2.1875C0.981201 14.75 0 15.7312 0 16.9375V25.6875C0 26.8938 0.981201 27.875 2.1875 27.875H2.5625V28.8125C2.5625 29.3303 2.98218 29.75 3.5 29.75C4.01782 29.75 4.4375 29.3303 4.4375 28.8125V27.875H27.5625V28.8125C27.5625 29.3303 27.9822 29.75 28.5 29.75C29.0178 29.75 29.4375 29.3303 29.4375 28.8125V27.875H29.8125C31.0188 27.875 32 26.8938 32 25.6875V16.9375C32 15.7312 31.0188 14.75 29.8125 14.75ZM12.1875 4.125C16.1506 4.125 19.375 7.34937 19.375 11.3125C19.375 15.2756 16.1506 18.5 12.1875 18.5C8.22437 18.5 5 15.2756 5 11.3125C5 7.34937 8.22437 4.125 12.1875 4.125ZM30.125 25.6875C30.125 25.8599 29.9849 26 29.8125 26H2.1875C2.01514 26 1.875 25.8599 1.875 25.6875V16.9375C1.875 16.7651 2.01514 16.625 2.1875 16.625H4.8501C6.49878 18.8955 9.17334 20.375 12.1875 20.375C15.2017 20.375 17.8762 18.8955 19.5249 16.625H29.8125C29.9849 16.625 30.125 16.7651 30.125 16.9375V25.6875Z" fill="#2B398F"/>
<path d="M29.8125 14.75H20.5723C21.0085 13.6895 21.25 12.5288 21.25 11.3125C21.25 6.31543 17.1846 2.25 12.1875 2.25C7.19043 2.25 3.125 6.31543 3.125 11.3125C3.125 12.5288 3.36646 13.6895 3.80273 14.75H2.1875C0.981201 14.75 0 15.7312 0 16.9375V25.6875C0 26.8938 0.981201 27.875 2.1875 27.875H2.5625V28.8125C2.5625 29.3303 2.98218 29.75 3.5 29.75C4.01782 29.75 4.4375 29.3303 4.4375 28.8125V27.875H27.5625V28.8125C27.5625 29.3303 27.9822 29.75 28.5 29.75C29.0178 29.75 29.4375 29.3303 29.4375 28.8125V27.875H29.8125C31.0188 27.875 32 26.8938 32 25.6875V16.9375C32 15.7312 31.0188 14.75 29.8125 14.75ZM12.1875 4.125C16.1506 4.125 19.375 7.34937 19.375 11.3125C19.375 15.2756 16.1506 18.5 12.1875 18.5C8.22437 18.5 5 15.2756 5 11.3125C5 7.34937 8.22437 4.125 12.1875 4.125ZM30.125 25.6875C30.125 25.8599 29.9849 26 29.8125 26H2.1875C2.01514 26 1.875 25.8599 1.875 25.6875V16.9375C1.875 16.7651 2.01514 16.625 2.1875 16.625H4.8501C6.49878 18.8955 9.17334 20.375 12.1875 20.375C15.2017 20.375 17.8762 18.8955 19.5249 16.625H29.8125C29.9849 16.625 30.125 16.7651 30.125 16.9375V25.6875Z" fill="#3749BB"/>
<path d="M19.6875 22.25H4.6875C4.16968 22.25 3.75 22.6697 3.75 23.1875C3.75 23.7053 4.16968 24.125 4.6875 24.125H19.6875C20.2053 24.125 20.625 23.7053 20.625 23.1875C20.625 22.6697 20.2053 22.25 19.6875 22.25Z" fill="#2B398F"/>
<path d="M19.6875 22.25H4.6875C4.16968 22.25 3.75 22.6697 3.75 23.1875C3.75 23.7053 4.16968 24.125 4.6875 24.125H19.6875C20.2053 24.125 20.625 23.7053 20.625 23.1875C20.625 22.6697 20.2053 22.25 19.6875 22.25Z" fill="#3749BB"/>
<path d="M28.25 23.1875C28.25 23.7053 27.8303 24.125 27.3125 24.125C26.7947 24.125 26.375 23.7053 26.375 23.1875C26.375 22.6697 26.7947 22.25 27.3125 22.25C27.8303 22.25 28.25 22.6697 28.25 23.1875Z" fill="#2B398F"/>
<path d="M28.25 23.1875C28.25 23.7053 27.8303 24.125 27.3125 24.125C26.7947 24.125 26.375 23.7053 26.375 23.1875C26.375 22.6697 26.7947 22.25 27.3125 22.25C27.8303 22.25 28.25 22.6697 28.25 23.1875Z" fill="#3749BB"/>
<path d="M28.25 19.4375C28.25 19.9553 27.8303 20.375 27.3125 20.375C26.7947 20.375 26.375 19.9553 26.375 19.4375C26.375 18.9197 26.7947 18.5 27.3125 18.5C27.8303 18.5 28.25 18.9197 28.25 19.4375Z" fill="#2B398F"/>
<path d="M28.25 19.4375C28.25 19.9553 27.8303 20.375 27.3125 20.375C26.7947 20.375 26.375 19.9553 26.375 19.4375C26.375 18.9197 26.7947 18.5 27.3125 18.5C27.8303 18.5 28.25 18.9197 28.25 19.4375Z" fill="#3749BB"/>
</svg>
