<svg width="32" height="32" viewBox="0 0 32 32" fill="none" xmlns="http://www.w3.org/2000/svg">
<path d="M31 14.9994H1V16.9994H31V14.9994Z" fill="#2B398F"/>
<path d="M31 14.9994H1V16.9994H31V14.9994Z" fill="#3749BB"/>
<path d="M16 4.13946H14V27.8595H16V4.13946Z" fill="#2B398F"/>
<path d="M16 4.13946H14V27.8595H16V4.13946Z" fill="#3749BB"/>
<path d="M31.66 1.24749C31.444 1.05749 31.168 0.975486 30.868 1.00749L0.868 5.00749C0.372 5.07549 0 5.49949 0 5.99949V25.9995C0 26.5015 0.372 26.9255 0.868 26.9915L30.868 30.9915C30.912 30.9975 30.958 30.9995 31 30.9995C31.24 30.9995 31.474 30.9115 31.658 30.7515C31.876 30.5615 32 30.2895 32 29.9995V1.99949C32 1.71149 31.876 1.43749 31.66 1.24749ZM30 28.8555L2 25.1235V6.87549L30 3.14149V28.8555Z" fill="#2B398F"/>
<path d="M31.66 1.24749C31.444 1.05749 31.168 0.975486 30.868 1.00749L0.868 5.00749C0.372 5.07549 0 5.49949 0 5.99949V25.9995C0 26.5015 0.372 26.9255 0.868 26.9915L30.868 30.9915C30.912 30.9975 30.958 30.9995 31 30.9995C31.24 30.9995 31.474 30.9115 31.658 30.7515C31.876 30.5615 32 30.2895 32 29.9995V1.99949C32 1.71149 31.876 1.43749 31.66 1.24749ZM30 28.8555L2 25.1235V6.87549L30 3.14149V28.8555Z" fill="#3749BB"/>
</svg>
